<svg width="18" height="18" viewBox="0 0 18 18" fill="none" xmlns="http://www.w3.org/2000/svg">
<path fill-rule="evenodd" clip-rule="evenodd" d="M9.98669 14.6299L9.00009 15.4914L8.0135 14.6299C4.48967 11.5529 2.70009 8.83009 2.70009 6.3C2.70009 2.71927 5.49324 0 9.00009 0C12.5069 0 15.3001 2.71927 15.3001 6.3C15.3001 8.83009 13.5105 11.5529 9.98669 14.6299ZM3.317 11.5229C3.68653 12.0289 4.09816 12.5435 4.55173 13.067C2.87573 13.4445 1.8 13.9802 1.8 14.3999C1.8 15.1261 5.02123 16.1999 9 16.1999C12.9788 16.1999 16.2 15.1261 16.2 14.3999C16.2 13.9802 15.1243 13.4445 13.4483 13.067C13.9018 12.5435 14.3135 12.0289 14.683 11.5229C16.7069 12.1371 18 13.1222 18 14.3999C18 16.656 13.9682 17.9999 9 17.9999C4.03176 17.9999 0 16.656 0 14.3999C0 13.1222 1.29306 12.1371 3.317 11.5229ZM9 1.7998C11.5234 1.7998 13.5 3.72415 13.5 6.2998C13.5 8.14207 12.0354 10.4091 9 13.1002C5.96459 10.4091 4.5 8.14207 4.5 6.2998C4.5 3.72415 6.47662 1.7998 9 1.7998ZM8.99991 3.60005C10.4911 3.60005 11.6999 4.80888 11.6999 6.30005C11.6999 7.79121 10.4911 9.00005 8.99991 9.00005C7.50874 9.00005 6.29991 7.79121 6.29991 6.30005C6.29991 4.80888 7.50874 3.60005 8.99991 3.60005ZM8.09982 6.2999C8.09982 5.80285 8.50276 5.3999 8.99981 5.3999C9.49687 5.3999 9.89982 5.80285 9.89982 6.2999C9.89982 6.79696 9.49687 7.1999 8.99981 7.1999C8.50276 7.1999 8.09982 6.79696 8.09982 6.2999Z" fill="#599BFF"/>
</svg>
