<svg width="40" height="40" viewBox="0 0 40 40" fill="none" xmlns="http://www.w3.org/2000/svg">
<path d="M20 40C31.0285 40 40 31.0279 40 20C40 8.97242 31.0279 0 20 0C8.97242 0 0 8.97214 0 20C0 31.0279 8.97139 40 20 40ZM20 1.57083C30.1618 1.57083 38.4292 9.83806 38.4292 20C38.4292 30.1619 30.1619 38.4301 20 38.4301C9.83824 38.4301 1.57082 30.1625 1.57082 20.0009C1.57082 9.83918 9.83806 1.57083 20 1.57083Z" fill="white"/>
<path d="M9.13141 21.569H29.597C30.4645 21.569 31.168 20.8659 31.168 19.998C31.168 19.1306 30.4649 18.4271 29.597 18.4271H9.13141C8.26397 18.4271 7.56049 19.1302 7.56049 19.998C7.56086 20.8659 8.26394 21.569 9.13178 21.569H9.13141Z" fill="white"/>
<path d="M23.7979 27.6933C24.1387 27.6933 24.4835 27.583 24.7713 27.3544L27.2144 25.4223C27.2385 25.4029 27.2626 25.3828 27.2856 25.3627L31.9132 21.2344C32.2511 20.9335 32.4421 20.5018 32.4384 20.0496C32.4348 19.5971 32.2364 19.169 31.8942 18.8735L24.7355 12.6892C24.0807 12.122 23.0883 12.194 22.52 12.851C21.9528 13.507 22.0259 14.4994 22.6822 15.0666L28.487 20.0813L25.229 22.9872L22.8221 24.8904C22.142 25.4288 22.0262 26.4167 22.5649 27.0968C22.8747 27.4884 23.3338 27.6933 23.798 27.6933L23.7979 27.6933Z" fill="white"/>
</svg>
