<svg width="19" height="18" viewBox="0 0 19 18" fill="none" xmlns="http://www.w3.org/2000/svg">
<path fill-rule="evenodd" clip-rule="evenodd" d="M12.6976 4.5H14.4976V9C14.4976 11.2238 14.6682 11.7 15.3976 11.7C16.5715 11.7 17.1976 11.1448 17.1976 9C17.1976 4.23959 14.81 1.8 9.99775 1.8C6.88012 1.80039 4.11692 3.80724 3.15211 6.77183C2.1873 9.73642 3.2401 12.9852 5.76035 14.8204C8.2806 16.6556 11.6957 16.6603 14.221 14.832L15.2765 16.29C12.1199 18.5753 7.85109 18.5695 4.70077 16.2755C1.55046 13.9815 0.234458 9.92053 1.44047 6.21479C2.64648 2.50905 6.10048 0.000489827 9.99764 0C15.8129 0 18.9976 3.25404 18.9976 9C18.9976 12.1904 17.5207 13.5 15.3976 13.5C14.1881 13.5 13.496 13.11 13.116 12.2443C12.3071 13.0219 11.2082 13.5 9.99758 13.5C7.5123 13.5 5.49758 11.4853 5.49758 9C5.49758 6.51472 7.5123 4.5 9.99758 4.5C11.0107 4.5 11.9455 4.83477 12.6976 5.39971V4.5ZM12.6975 8.9998C12.6975 10.491 11.4887 11.6998 9.99749 11.6998C8.50632 11.6998 7.29749 10.491 7.29749 8.9998C7.29749 7.50864 8.50632 6.2998 9.99749 6.2998C11.4887 6.2998 12.6975 7.50864 12.6975 8.9998Z" fill="#599BFF"/>
</svg>
