<svg width="18" height="18" viewBox="0 0 18 18" fill="none" xmlns="http://www.w3.org/2000/svg">
<path fill-rule="evenodd" clip-rule="evenodd" d="M7.97445 5.70441C8.44069 5.07609 8.60788 4.41389 8.08057 3.82937C6.89723 2.17356 6.10141 1.14961 5.60223 0.656496C4.65322 -0.280969 3.09208 -0.154162 2.27018 0.655695C1.82872 1.09068 1.67927 1.24005 1.22599 1.70045C-1.29884 4.22664 0.240932 9.56691 4.33421 13.6642C8.42655 17.7606 13.7663 19.3012 16.2964 16.7696C16.7147 16.3664 17.0689 16.0121 17.3482 15.7169C18.1536 14.8655 18.2759 13.3733 17.3429 12.4038C16.8645 11.9068 15.8881 11.1494 14.1626 9.91511C13.6341 9.44257 13.0075 9.54498 12.4331 9.92187C12.1567 10.1032 11.9556 10.2865 11.5759 10.6667L10.8864 11.3566C10.7955 11.4475 9.56231 10.8299 8.36519 9.63155C7.16741 8.4326 6.55024 7.1993 6.64063 7.10891L7.33066 6.41851C7.45113 6.29791 7.50873 6.23953 7.5826 6.1619C7.73649 6.00016 7.8639 5.85338 7.97445 5.70441ZM12.1583 12.6293L12.848 11.9393C13.057 11.7301 13.1924 11.6015 13.3026 11.5128C14.8142 12.5983 15.6896 13.2808 16.0471 13.6523C16.2618 13.8754 16.2284 14.2824 16.0418 14.4797C15.7836 14.7526 15.448 15.0884 15.0362 15.4855C13.4002 17.1223 9.08978 15.8787 5.60644 12.3919C2.12201 8.90406 0.879001 4.59303 2.50272 2.96842C2.95417 2.50991 3.0972 2.36695 3.53236 1.93818C3.69551 1.77741 4.13994 1.74131 4.33842 1.93738C4.72274 2.31702 5.43565 3.22985 6.48438 4.69071C6.43008 4.75811 6.36228 4.83428 6.27976 4.921C6.21919 4.98466 6.16873 5.03581 6.05842 5.14622L5.36907 5.83595C4.19636 7.00857 5.19509 9.00431 7.09295 10.904C8.98952 12.8025 10.986 13.8023 12.1583 12.6293ZM10.493 0.0633738C14.3836 0.53496 17.4685 3.61989 17.9401 7.51048L16.1624 7.80677C15.8191 4.67295 13.3305 2.18433 10.1967 1.84109L10.493 0.0633738ZM9.89998 3.6204C12.2771 3.83301 14.1703 5.72625 14.383 8.10338L12.5995 8.40061C12.5239 6.77998 11.2234 5.4795 9.60275 5.40382L9.89998 3.6204Z" fill="#599BFF"/>
</svg>
