<svg width="22" height="20" viewBox="0 0 22 20" fill="none" xmlns="http://www.w3.org/2000/svg">
<path d="M22 7.20823C22.0005 6.9096 21.9218 6.61618 21.7721 6.35779C21.6224 6.09941 21.4069 5.88528 21.1476 5.73718L11.8813 0.237912C11.6143 0.0821015 11.3107 0 11.0015 0C10.6923 0 10.3886 0.0821015 10.1216 0.237912L0.84157 5.73718C0.585128 5.88934 0.372692 6.10561 0.22514 6.36474C0.0775886 6.62386 0 6.91692 0 7.21511C0 7.51329 0.0775886 7.80635 0.22514 8.06548C0.372692 8.3246 0.585128 8.54087 0.84157 8.69303L3.48122 10.2328V14.0961C3.48281 14.398 3.56205 14.6944 3.71133 14.9569C3.86061 15.2193 4.0749 15.4389 4.3336 15.5946L10.1766 18.9629C10.4375 19.1074 10.7308 19.1831 11.029 19.1831C11.3272 19.1831 11.6205 19.1074 11.8813 18.9629L17.7243 15.5946C17.983 15.4389 18.1973 15.2193 18.3466 14.9569C18.4959 14.6944 18.5751 14.398 18.5767 14.0961V10.1916L20.2815 9.18797V12.9275H22V7.20823ZM16.8719 14.0823L11.0015 17.4644L5.19974 14.0961V11.2502L10.1216 14.1786C10.3896 14.3317 10.6928 14.4122 11.0015 14.4122C11.3101 14.4122 11.6134 14.3317 11.8813 14.1786L16.8582 11.2089L16.8719 14.0823ZM11.0015 12.6938L1.72145 7.19448L11.0015 1.68147L20.2815 7.18074L11.0015 12.6938Z" fill="#444444"/>
</svg>
