<svg width="46" height="45" viewBox="0 0 46 45" fill="none" xmlns="http://www.w3.org/2000/svg">
<circle cx="22.6006" cy="22.5" r="22.5" fill="#BCD7FF"/>
<path d="M23.1006 12C20.9796 12.0025 18.9462 12.8311 17.4465 14.304C15.9468 15.777 15.1031 17.7741 15.1006 19.8571C15.0981 21.5594 15.6642 23.2156 16.7122 24.5714C16.7122 24.5714 16.9304 24.8536 16.966 24.8943L23.1006 32L29.238 24.8907C29.27 24.8529 29.4889 24.5714 29.4889 24.5714L29.4897 24.5693C30.5372 23.214 31.1031 21.5587 31.1006 19.8571C31.0981 17.7741 30.2544 15.777 28.7547 14.304C27.2549 12.8311 25.2215 12.0025 23.1006 12ZM23.1006 22.7143C22.5252 22.7143 21.9628 22.5467 21.4844 22.2328C21.006 21.9188 20.6331 21.4726 20.4129 20.9505C20.1928 20.4284 20.1351 19.854 20.2474 19.2997C20.3596 18.7455 20.6367 18.2364 21.0436 17.8368C21.4504 17.4373 21.9687 17.1651 22.5331 17.0549C23.0974 16.9447 23.6823 17.0012 24.2138 17.2175C24.7454 17.4337 25.1997 17.7999 25.5194 18.2698C25.8391 18.7397 26.0097 19.2921 26.0097 19.8571C26.0087 20.6146 25.7019 21.3408 25.1566 21.8764C24.6112 22.412 23.8718 22.7133 23.1006 22.7143Z" fill="#599BFF"/>
</svg>
