<svg width="49" height="48" viewBox="0 0 49 48" fill="none" xmlns="http://www.w3.org/2000/svg">
<circle cx="24.1006" cy="24" r="24" fill="#BCD7FF"/>
<path d="M17.7802 17.3204L18.3935 16.7071C18.784 16.3166 19.4172 16.3166 19.8077 16.7071L22.3935 19.2929C22.784 19.6834 22.784 20.3166 22.3935 20.7071L20.6011 22.4995C20.3022 22.7984 20.2281 23.255 20.4171 23.6331C21.5099 25.8186 23.282 27.5907 25.4675 28.6835C25.8456 28.8725 26.3022 28.7984 26.6011 28.4995L28.3935 26.7071C28.784 26.3166 29.4172 26.3166 29.8077 26.7071L32.3935 29.2929C32.784 29.6834 32.784 30.3166 32.3935 30.7071L31.7802 31.3204C29.6689 33.4317 26.3263 33.6693 23.9376 31.8777L22.7292 30.9714C20.9856 29.6638 19.4368 28.115 18.1292 26.3714L17.2228 25.163C15.4313 22.7743 15.6689 19.4317 17.7802 17.3204Z" fill="#599BFF"/>
</svg>
