<svg width="49" height="48" viewBox="0 0 49 48" fill="none" xmlns="http://www.w3.org/2000/svg">
<circle cx="24.1006" cy="24" r="24" fill="#BCD7FF"/>
<circle cx="24.1006" cy="24" r="8" stroke="#599BFF" stroke-width="2"/>
<path d="M30.6726 19.2064C29.9489 20.0535 28.9874 20.7486 27.8678 21.2342C26.7481 21.7198 25.5023 21.982 24.2332 21.9991C22.9642 22.0162 21.7084 21.7877 20.5695 21.3326C19.4306 20.8774 18.4414 20.2086 17.6835 19.3814" stroke="#599BFF" stroke-width="2"/>
<path d="M30.6726 28.7936C29.9489 27.9465 28.9874 27.2514 27.8678 26.7658C26.7481 26.2802 25.5023 26.018 24.2332 26.0009C22.9642 25.9838 21.7084 26.2123 20.5695 26.6674C19.4306 27.1226 18.4414 27.7914 17.6835 28.6186" stroke="#599BFF" stroke-width="2"/>
<path d="M24.1006 16V32" stroke="#599BFF" stroke-width="2"/>
</svg>
