<svg width="49" height="48" viewBox="0 0 49 48" fill="none" xmlns="http://www.w3.org/2000/svg">
<circle cx="24.1006" cy="24" r="24" fill="#BCD7FF"/>
<path d="M15.1006 23C15.1006 19.2288 15.1006 17.3431 16.2722 16.1716C17.4437 15 19.3293 15 23.1006 15H25.1006C28.8718 15 30.7574 15 31.929 16.1716C33.1006 17.3431 33.1006 19.2288 33.1006 23V25C33.1006 28.7712 33.1006 30.6569 31.929 31.8284C30.7574 33 28.8718 33 25.1006 33H23.1006C19.3293 33 17.4437 33 16.2722 31.8284C15.1006 30.6569 15.1006 28.7712 15.1006 25V23Z" stroke="#599BFF" stroke-width="2"/>
<circle cx="28.6006" cy="19.5" r="1.5" fill="#599BFF"/>
<circle cx="24.1006" cy="24" r="3" stroke="#599BFF" stroke-width="2"/>
</svg>
