<svg width="47" height="47" viewBox="0 0 47 47" fill="none" xmlns="http://www.w3.org/2000/svg">
<path d="M30.3087 24.541C30.7967 22.7229 30.5461 20.8226 29.6053 19.1924C29.4267 18.8838 29.2215 18.5963 29.0021 18.3222L34.9429 12.3814C35.6573 13.1725 36.3036 14.0459 36.8574 15.0055C38.2141 17.3555 38.9238 20.0439 38.9097 22.7793C38.9074 23.2117 39.2567 23.5642 39.6891 23.5666C39.6899 23.5666 39.6915 23.5666 39.6931 23.5666C40.1239 23.5666 40.474 23.2188 40.4764 22.7872C40.4827 21.5362 40.344 20.2962 40.0816 19.0859L41.8621 18.6081C42.2804 18.4961 42.5279 18.0668 42.4159 17.6485C42.3039 17.2302 41.8739 16.9803 41.4563 17.0947L39.679 17.5709C39.3899 16.656 39.0233 15.7677 38.5823 14.9131L40.1725 13.995C40.5477 13.7788 40.6754 13.2994 40.4592 12.925C40.243 12.5498 39.7628 12.4205 39.3891 12.6383L37.7872 13.5634C37.2624 12.7433 36.6858 11.974 36.049 11.2753L37.347 9.97732C37.6533 9.67103 37.6533 9.17596 37.347 8.86968C37.0407 8.5634 36.5456 8.5634 36.2393 8.86968L34.9445 10.1645C34.2293 9.5128 33.4609 8.93626 32.6564 8.42318L33.5776 6.82831C33.7938 6.4531 33.6661 5.97448 33.2909 5.75828C32.9157 5.5413 32.4363 5.66976 32.2208 6.04498L31.2973 7.64455C30.4427 7.20431 29.5544 6.8432 28.641 6.55336L29.1212 4.7611C29.2332 4.34358 28.9849 3.91353 28.5674 3.80151C28.1467 3.68636 27.7198 3.93781 27.6078 4.35533L27.1276 6.1476C26.1939 5.9408 25.2437 5.80998 24.2833 5.76376V3.91666C24.2833 3.48348 23.9324 3.13333 23.5 3.13333C23.0676 3.13333 22.7167 3.48348 22.7167 3.91666V5.75906C21.7633 5.80136 20.81 5.91651 19.8645 6.12331L19.3906 4.35455C19.2786 3.93703 18.8517 3.68558 18.431 3.80073C18.0135 3.91275 17.7652 4.34201 17.8772 4.76031L18.3519 6.533C17.4503 6.8197 16.5675 7.19805 15.7019 7.64533L14.7776 6.0442C14.5614 5.6682 14.0828 5.53973 13.7083 5.7575C13.3331 5.9737 13.2054 6.4531 13.4216 6.82753L14.3397 8.41691C13.525 8.9394 12.7636 9.52533 12.0602 10.1692L10.7599 8.8689C10.4536 8.56261 9.9585 8.56261 9.65222 8.8689C9.34594 9.17518 9.34594 9.67025 9.65222 9.97653L10.9557 11.28C10.3094 11.992 9.72585 12.755 9.21042 13.5618L7.61007 12.6383C7.23407 12.4213 6.75624 12.5498 6.54004 12.925C6.32384 13.3002 6.4523 13.7788 6.82674 13.995L8.42865 14.9201C7.98999 15.7701 7.62182 16.6576 7.32964 17.5733L5.54285 17.0939C5.1269 16.9803 4.69529 17.2302 4.58327 17.6477C4.47125 18.0652 4.71879 18.4953 5.13709 18.6073L6.92387 19.0867C6.6591 20.2891 6.51575 21.5268 6.51967 22.7848C6.52045 23.2172 6.87139 23.5658 7.303 23.5658C7.30379 23.5658 7.30457 23.5658 7.30535 23.5658C7.73775 23.5642 8.0879 23.2125 8.08634 22.7801C8.07459 18.8916 9.53707 15.1974 12.0625 12.3876L17.9924 18.3175C17.3931 19.0671 16.9458 19.9366 16.6897 20.8923C16.2017 22.7104 16.4523 24.6108 17.3931 26.2409C18.6512 28.4154 20.9918 29.7667 23.5055 29.7667C24.7361 29.7667 25.9534 29.4392 27.0242 28.8212C28.6551 27.8804 29.8215 26.3599 30.3087 24.541ZM23.4945 15.6667C22.2639 15.6667 21.0466 15.9941 19.9758 16.6121C19.6664 16.7907 19.3804 16.996 19.1055 17.2137L13.1686 11.2769C13.9653 10.5546 14.8387 9.9076 15.7889 9.35926C21.721 5.93375 29.0021 6.91683 33.8345 11.2745L27.8929 17.2161C26.6592 16.2346 25.1152 15.6667 23.4945 15.6667Z" fill="white"/>
<path d="M21.15 37.2083H20.1701C20.0722 35.7341 19.6813 34.274 19.006 32.8984L19.8622 32.4041C20.2374 32.1879 20.3651 31.7085 20.1489 31.3341C19.9319 30.9589 19.4518 30.8304 19.0789 31.0474L18.2164 31.5448C17.8279 30.9699 17.4073 30.4207 16.9294 29.9296L12.5686 34.7729C12.7394 34.9821 12.9 35.2014 13.037 35.4396C13.7436 36.6631 13.883 38.0606 13.5399 39.3272L19.4909 41.9765C19.8708 40.944 20.0839 39.8646 20.1599 38.775H21.15C21.5824 38.775 21.9334 38.4248 21.9334 37.9917C21.9334 37.5585 21.5824 37.2083 21.15 37.2083Z" fill="white"/>
<path d="M15.0698 28.3817L15.5617 27.5295C15.7779 27.1542 15.6494 26.6756 15.275 26.4594C14.899 26.2432 14.4212 26.3709 14.205 26.7461L13.7099 27.6031C12.3751 26.9467 10.9158 26.5409 9.40001 26.4359V25.4583C9.40001 25.0251 9.04908 24.675 8.61668 24.675C8.18428 24.675 7.83335 25.0251 7.83335 25.4583V26.4461C6.33718 26.5479 4.86686 26.9247 3.51483 27.5882L6.77585 33.2368C7.36178 33.0097 7.98375 32.8859 8.61276 32.8859C9.62013 32.8859 10.5828 33.1945 11.4014 33.728L15.7654 28.8815C15.5398 28.7052 15.3063 28.5407 15.0698 28.3817Z" fill="white"/>
<path d="M33.9622 35.4388C34.0993 35.2007 34.2598 34.9821 34.4306 34.7722L30.0698 29.9288C29.592 30.42 29.1713 30.9683 28.7828 31.5441L27.9203 31.0466C27.5467 30.8304 27.0673 30.9581 26.8503 31.3333C26.6341 31.7086 26.7626 32.1872 27.137 32.4034L27.9932 32.8977C27.3187 34.2732 26.9271 35.7341 26.8292 37.2076H25.85C25.4176 37.2076 25.0667 37.5577 25.0667 37.9909C25.0667 38.4241 25.4176 38.7742 25.85 38.7742H26.8401C26.9153 39.8638 27.1292 40.9433 27.5091 41.9757L33.4601 39.3265C33.1162 38.0598 33.2556 36.6624 33.9622 35.4388Z" fill="white"/>
<path d="M39.1667 25.4583C39.1667 25.0251 38.8157 24.675 38.3833 24.675C37.9509 24.675 37.6 25.0251 37.6 25.4583V26.4351C36.0842 26.5401 34.6249 26.9459 33.2901 27.6023L32.795 26.7453C32.5788 26.3701 32.101 26.2417 31.725 26.4586C31.3498 26.6748 31.2221 27.1542 31.4383 27.5287L31.9302 28.3809C31.6929 28.54 31.4594 28.7045 31.2346 28.8807L35.5986 33.7272C36.4172 33.193 37.3807 32.8851 38.3872 32.8851C39.0163 32.8851 39.6382 33.0089 40.2242 33.236L43.4852 27.5874C42.1331 26.9239 40.6628 26.5472 39.1667 26.4453V25.4583Z" fill="white"/>
<path d="M44.6398 33.7554C44.7174 33.5964 44.7887 33.435 44.8623 33.2744C44.9571 33.0661 45.0566 32.8608 45.1451 32.6493C45.3151 32.2491 45.4717 31.8417 45.6198 31.4297C45.648 31.3514 45.673 31.2722 45.6997 31.1939C45.8289 30.8218 45.9488 30.445 46.06 30.0643C46.071 30.0267 46.0851 29.9907 46.096 29.9523C46.0984 29.9437 46.0976 29.9351 46.0992 29.9273C46.6812 27.8828 47 25.7286 47 23.5C47 10.5421 36.4579 0 23.5 0C10.5421 0 0 10.5421 0 23.5C0 25.7286 0.318817 27.8828 0.900833 29.9273C0.903183 29.9359 0.901617 29.9445 0.903967 29.9523C0.914933 29.9899 0.929033 30.0267 0.94 30.0643C1.05123 30.445 1.17108 30.821 1.30033 31.1939C1.32775 31.2722 1.35282 31.3521 1.38023 31.4297C1.52828 31.8409 1.68495 32.2483 1.85493 32.6493C1.94423 32.8608 2.04293 33.0661 2.13772 33.2744C2.21135 33.435 2.28263 33.5964 2.36018 33.7554C2.50118 34.0468 2.65002 34.3327 2.80198 34.6171C2.82548 34.6609 2.84898 34.7056 2.87327 34.7495C5.217 39.0625 8.85323 42.535 13.3088 44.6727C13.3143 44.6751 13.3206 44.6782 13.3261 44.6813C13.6096 44.8169 13.8963 44.9461 14.1862 45.0707C14.3193 45.1286 14.4533 45.1842 14.588 45.2398C14.8254 45.337 15.0635 45.4333 15.3056 45.5234C15.5382 45.6104 15.774 45.6895 16.0098 45.7694C16.157 45.8187 16.2996 45.8751 16.4477 45.9221C16.4555 45.9245 16.4633 45.9237 16.4712 45.9253C18.6911 46.6224 21.0521 47 23.5 47C25.9479 47 28.3089 46.6224 30.5296 45.9245C30.5375 45.9221 30.5453 45.9237 30.5531 45.9214C30.7012 45.8744 30.8445 45.818 30.991 45.7686C31.2268 45.6887 31.4626 45.6096 31.6952 45.5226C31.9373 45.4325 32.1746 45.3362 32.4128 45.2391C32.5475 45.1835 32.6814 45.1278 32.8146 45.0699C33.1045 44.9453 33.3912 44.8161 33.6747 44.6806C33.6802 44.6782 33.6865 44.6751 33.692 44.6719C38.1468 42.5334 41.7838 39.0617 44.1275 34.7479C44.1518 34.704 44.1753 34.6594 44.1988 34.6155C44.3508 34.3327 44.4996 34.0468 44.6398 33.7554ZM3.99422 36.5911C4.0937 36.7383 4.19867 36.8809 4.30128 37.0258C4.21355 36.9021 4.11485 36.7869 4.02947 36.6608C4.01458 36.6396 4.00675 36.6146 3.99422 36.5911ZM6.37398 39.5677C6.52987 39.7338 6.68575 39.9014 6.84633 40.0628C6.68575 39.9014 6.53065 39.7338 6.37398 39.5677ZM4.9914 37.9541C5.17235 38.1852 5.35565 38.4131 5.54443 38.6371C5.35487 38.4131 5.17157 38.1852 4.9914 37.9541ZM9.83162 42.6102C9.77443 42.5695 9.72352 42.5225 9.66712 42.4809C9.74075 42.535 9.81517 42.5867 9.88958 42.6392C9.87078 42.6274 9.84963 42.6227 9.83162 42.6102ZM7.95005 41.0984C8.0934 41.2245 8.23675 41.3506 8.38323 41.4736C8.23675 41.3506 8.0934 41.2245 7.95005 41.0984ZM18.019 44.7401C18.3277 44.31 18.6128 43.8682 18.8572 43.4084L12.9015 40.7568C12.5983 41.2284 12.2137 41.6522 11.7563 42.0102C8.87203 40.174 6.44213 37.6862 4.6812 34.751C4.90132 34.4823 5.14415 34.2325 5.41597 34.0139L2.16278 28.3786C2.15103 28.3864 2.1385 28.3958 2.12675 28.4037C1.76485 26.8268 1.56667 25.1865 1.56667 23.5C1.56667 11.4061 11.4061 1.56667 23.5 1.56667C35.5939 1.56667 45.4333 11.4061 45.4333 23.5C45.4333 25.1865 45.2352 26.8268 44.8733 28.4052C44.8615 28.3974 44.849 28.388 44.8372 28.3802L41.584 34.0155C41.8559 34.234 42.0979 34.4839 42.3188 34.7526C40.5571 37.6877 38.128 40.1756 35.2437 42.0117C34.7871 41.653 34.4016 41.2292 34.0985 40.7584L28.1428 43.41C28.3872 43.8698 28.6724 44.3116 28.981 44.7417C27.2287 45.1921 25.3918 45.4333 23.5 45.4333C21.6083 45.4333 19.7713 45.1921 18.019 44.7401ZM37.1112 42.6392C37.1856 42.5859 37.26 42.5342 37.3337 42.4809C37.2773 42.5225 37.2256 42.5695 37.1692 42.6102C37.1504 42.6227 37.1292 42.6274 37.1112 42.6392ZM39.0507 41.0976C38.9074 41.2245 38.764 41.3506 38.6168 41.4736C38.7633 41.3506 38.9074 41.2245 39.0507 41.0976ZM40.1537 40.0628C40.315 39.9007 40.4701 39.7338 40.626 39.567C40.4693 39.7338 40.3143 39.9014 40.1537 40.0628ZM42.9705 36.6616C42.8852 36.7877 42.7864 36.9028 42.6987 37.0266C42.8013 36.8817 42.9063 36.7383 43.0058 36.5911C42.9933 36.6146 42.9854 36.6396 42.9705 36.6616ZM41.4548 38.6387C41.6444 38.4139 41.8284 38.1844 42.0102 37.9533C41.8284 38.1852 41.6444 38.4139 41.4548 38.6387Z" fill="white"/>
</svg>
