<svg width="27" height="27" viewBox="0 0 27 27" fill="none" xmlns="http://www.w3.org/2000/svg">
<path d="M26.6597 25.0661L18.913 17.3139C20.4402 15.4823 21.3587 13.1417 21.3587 10.5853C21.3587 4.75316 16.5724 0.0110779 10.6849 0.0110779C4.79742 0.0110779 0 4.7587 0 10.5908C0 16.423 4.78635 21.1651 10.6738 21.1651C13.1749 21.1651 15.4768 20.3074 17.3028 18.8743L25.0772 26.6486C25.5309 27.1024 26.206 27.1024 26.6597 26.6486C27.1134 26.1949 27.1134 25.5198 26.6597 25.0661ZM2.26867 10.5908C2.26867 6.00923 6.04242 2.28529 10.6738 2.28529C15.3053 2.28529 19.079 6.00923 19.079 10.5908C19.079 15.1725 15.3053 18.8964 10.6738 18.8964C6.04242 18.8964 2.26867 15.1669 2.26867 10.5908Z" fill="white"/>
</svg>
