<svg width="47" height="47" viewBox="0 0 47 47" fill="none" xmlns="http://www.w3.org/2000/svg">
<path d="M23.4991 25.7381C18.4174 25.7381 14.1 27.2158 11.28 29.532V33.84H35.72V29.532C32.9 27.2158 28.5817 25.7381 23.4991 25.7381ZM45.9378 23.5273L23.4399 13.16L0.951294 23.5273L4.70001 25.2428V27.8813C3.76001 28.0759 3.75719 28.5685 3.75719 29.1541C3.75719 29.5 3.87187 29.9052 4.08995 30.1477L2.80403 32.9H7.39123L6.11659 30.1458C6.33091 29.9033 6.50669 29.5461 6.50669 29.2002C6.50669 28.6155 5.64001 28.075 5.64001 27.8804V25.6836L10.34 27.7949V27.6078C13.16 25.1553 18.1148 23.5987 23.4981 23.5987C28.8834 23.5987 33.84 25.1553 36.66 27.6078V27.7949L45.9378 23.5273Z" fill="white"/>
</svg>
